<?xml version="1.0" encoding="utf-8"?>
<!-- Generator: Adobe Illustrator 19.0.0, SVG Export Plug-In . SVG Version: 6.00 Build 0)  -->
<svg version="1.1" id="Layer_1" xmlns="http://www.w3.org/2000/svg" xmlns:xlink="http://www.w3.org/1999/xlink" x="0px" y="0px"
	 viewBox="0 0 792 612" style="enable-background:new 0 0 792 612;" xml:space="preserve">
<style type="text/css">
	.st0{fill:#FFFFFF;}
	.st1{fill:#690030;}
	.st2{fill:#61092C;}
</style>
<g>
	<path class="st0" d="M684.4,205.9c0-12.5,0-141.1,0-153.6c-13,0-181.6,0-188.5,0c-3.7,5.2-62.9,89.7-73.6,104.9
		c-25.6-4.4-51.4-6.7-69.1-8c-17.7-24-67.5-91.7-70.8-96.2c-6.7,0-176.5,0-189.5,0c0,12.5,0,142.5,0,155c7.6,0,26.3,0,26.3,0v207.5
		c0,0-19.6,0-27.4,0c0,12.5,0,141.3,0,153.9c12.9,0,191.3,0,204.2,0c0-10.9,0-79.5,0-95.9l10.6-5.1c0-0.2,0-0.4-0.1-0.6l0.1,0
		c0,0.2,0,0.4,0,0.6c4.7-1.9,9.6-4.4,13.4-7l5.6-3.4c7.8-4.7,15.6-9.1,23.4-13.8c-1.3,0.9-2.6,2-3.5,3.1c0,0-0.9,0.6-2.2,1.4
		c4.3,6.1,32.5,46.8,40.7,58.5c10.6-14.5,124.1-169.3,124.1-169.3l-1.9,78.9c0,0-22.3,0.7-30.6,1c0,12.1,0,138.3,0,150.7
		c12.9,0,194.5,0,207.5,0c-0.1-12.5-1-138-1.1-150.4c-8,0-28.7,0-28.7,0l1.2-212.2C654.7,205.9,676.2,205.9,684.4,205.9z
		 M149.8,280.7L149.8,280.7c-2.1,5.4-4.4,12.8-4.4,19.6c0,3.3,0.6,6.2,1.7,8.5c0.5,1.2,1.5,2.2,2.3,3.2c0,0-0.1,0.1-0.1,0.1
		c-2.2,4.3-4.3,8.3-7,10.8c-0.6,0.5-4.3,3.5-5.5,4.4c-0.6,0.3-1.5,0.7-1.5,0.7s-1,0.5-1.3,0.7c0-28.5,0-36.8,0-66.2
		c1.2,2.9,2.7,5.1,3.7,6.4l0.6,0.9C141,273,144.3,277.4,149.8,280.7z M107.9,192.9c0-12.7,0-112.3,0-125c13.5,0,159.9,0,166.9,0
		c3.6,4.8,37.9,51.5,50,67.9c-0.5,0.1-1,0.2-1.5,0.2c-0.4,0-0.9,0-0.9,0c-5.7-0.1-9.2,0.1-12.2,0.6c-5.3,0-10.6,0.3-14.5,0.8
		c-0.9,0.1-1.9,0.2-3,0.4l0.1-0.1l-2.7,0.1l-8.2,0.6l2-0.2c0,0-3-0.1-2.8-0.1c-3.3-0.1-7.1-0.1-10.9,0.7c0.2,0,0.4,0,0.7,0l-1.9,0.2
		c0.4-0.1,0.8-0.2,1.2-0.2c-22.5,0-40.6-0.5-56.9-1.4l-0.3-0.2h-6c-3.3,0-7.2-0.6-11.3-1.2c-6-0.9-12.7-1.9-19.8-1.5l-14,0.9v14.1
		c0,13.7,7.1,26.9,19.5,37.8c-1.2,1.4-2.1,2.6-2.1,2.5l-3.2,3.9l-3.9,4.7v5.4c0,3.4,0.9,6.4,2.5,9c-1.2,1.3-2.5,2.5-3.8,4l-3.9,4.8
		c-2.8,3.5-5.8,7.2-8.7,9.4c0,0-5.8,4.5-6.6,5.2c-0.9,0.5-16.2,9.1-17.4,9.7c0-16.8,0-53,0-53S115.5,192.9,107.9,192.9z M281,554.3
		c-13.3,0-160.9,0-174.2,0c0-12.7,0-111.1,0-123.8c7.9,0,27.4,0,27.4,0v-7.5c0,0,0-2.2,0-4.3c1.6,0.3,3.2,0.5,4.7,0.7
		c6.8,10.6,22.2,14.9,22.2,14.9c5.4,1.5,11.7,1.4,14.2,1.3c5.1-0.2,9.3-1.6,12.7-2.7c1.8-0.6,3.6-1.2,4.7-1.2c0,0,3.6,0.6,3.9,0.7
		c0,0,6.1,1,6.2,1c3.3,0.3,6.6,0.2,10.1,0c0,2.2,0,5.1,0,5.1c0,11.3,9.3,17.6,12.4,19.7c11.3,7.6,29.6,8.9,44.7,7.7
		c-0.1,0.4-0.6,2-0.6,2l0,0c-0.1,0.2-2.2,7.1-2.2,7.1l1.3,15.7c0,0,10.8,0,12.5,0C281,502.6,281,543.4,281,554.3z M270.1,466.1
		c0,0-0.4,0.8-0.6,1.2c0.2-0.4,0.3-0.8,0.3-0.8L270.1,466.1z M358,438.7c-0.8,0.6-1.7,1.1-2.6,1.6c1.1-0.7,2.2-1.4,3.2-2.1
		C358.4,438.4,358.2,438.6,358,438.7z M384.3,481.4c-6.4-9.1-15.1-21.7-20.1-28.9c1.2-0.8,2.4-1.5,2.4-1.5l21.4-15.5l13.5-10.9
		l0.5-0.4l11.4-11.1c0,0,16.8-16.6,17-16.8l7.9-9c0,0,8.9-10,8.9-10c5.2-5.4,12.4-11,20.8-16.2l3.4-2.1c1.7-1.1,3.3-2.1,5-3.1
		C455.6,384.2,393.9,468.3,384.3,481.4z M479.9,337.1c-7.1,2.8-13.3,7.1-19.8,11.2c-8.1,5-16.8,11.3-23.6,18.5
		c-6,6.2-11.3,13.2-17.2,19.4c-8.9,9.4-18.3,17.8-27.4,26.9c-1.1,0.9-2.2,1.8-3.4,2.7c1-1.1,1.9-2.3,2.7-3.6c2-3.2,2.3-7.3,2.6-11.1
		l0.4-3.8c1.1-4.6,2.8-9.1,4.9-14.4c1.8-4.3,3.8-8.1,5.7-10.9c0-0.1,2.3-2.8,2.3-2.8c2.2-2.6,5-5.7,6.2-9.8c0,0-0.7-6.7-0.7-6.7
		c-0.4-0.8-1-1.4-1.6-2c1-1.1,1.9-2.1,2.6-3.2c3.2,0,7.3,0,7.3,0l-3.3-7.4l-4.1-11c0,0-2,1.4-3.1,2.2c-0.7-0.2-1.5-0.6-2.1-0.6
		l-0.8-0.1c0,0-1.9,0.2-2.5,0.2c0.7-1.2,1.4-2.4,1.8-3.9c0.3-1,0.5-1.9,0.5-2.7c0-1.1-0.2-2-0.5-2.8c0-2.2,0-5.5,0-5.5l-16.1,0.1
		c-2.3,0.1-4.2,0.1-6,0c4.5-1.8,8.8-3.9,12.8-6.7c3.2-2,4.9-4.8,4.9-7.7c0-0.7-0.1-1.4-0.3-2.1c-0.2-0.8-0.9-1.3-1.4-2
		c0,0,0.3,0.1,0.3,0.1c-0.1-0.2-0.4-0.3-0.5-0.5c-0.6-0.7-1.1-1.4-1.8-1.9c-2.2-2.2-5.1-4-9.1-5.4c0.4,0,0.8-0.1,0.8-0.1
		c1-0.1,2.8-0.2,4.6-0.7c1.5,0,9.2,0,9.2,0l-2.6-7.1c0,0-0.5-1.8-1.1-3.6c1.4,0.4,2.7,0.7,4.2,1.2c0.2,0.1,0.8,0.3,0.8,0.3
		c0.3,0.1,1.4,0.5,1.5,0.5c0.3,0.1,0.6,0.2,0.9,0.4c0.3,0.1,0.6,0.3,0.6,0.3c-0.1-0.1,1.1,0.5,1.1,0.5c0.3,0.1,0.7,0.3,0.7,0.3
		l0.2,0.1l0.6,0.3c0,0,0.3,0.1,0.6,0.3c0.9,0.4,8.5,4,14,2.2c1.2,0,3.7,0,5.5,0c2.4,0.7,5.1,1.1,8.1,1.1h7.5c0,0,0-5.4,0-6.7
		c0-0.1,0-0.2,0-0.2c0.9,0.2,1.8,0.3,2.6,0.5l3,0.6c0.2,0,1.1,0.2,1.1,0.2s18.4,2.8,19.2,2.9c7.3,1.6,14.7,4.4,21.9,7.2
		c0,0,1.9,0.7,2.4,0.9c0.6,0.3,18,8.9,18,8.9l10.8,5.4c0,0,0-2.5,0-4.8c0.5,0.2,1.8,0.9,1.8,0.9l0.2,0l11.4,3.6
		c0.3,0.1,14.9,3.2,14.9,3.2c13.7,2.6,30.8,6,37.9,13.5c1.5,1.6,2.8,4,3.7,6.8v6.4c0-0.1-0.1-0.1-0.2-0.2c-0.4-0.2-0.8-0.5-1.2-0.7
		c-4.2-1.6-14.2,1.1-19.7,0.8c-2.2-0.3-4.3-0.5-6.5-0.8c-3.6-0.1-7.2-0.2-10.8-0.2c-11.4-1.1-22.6-3.5-35-3.6
		c-3.5-0.1-7.6-0.8-11.2-0.2C500.6,331.7,489.7,333.2,479.9,337.1z M667.2,433.1c0.1,12.3,0.8,109.2,0.9,120.3
		c-13.4,0-164.1,0-177.4,0c0-12.7,0-108.9,0-121.2c8.4-0.3,30.2-1,30.2-1s1.8-76.4,2.1-86c6.9,0.1,13.9,1.1,20.7,2l12.4,1.5l0.5,0.1
		c0,0,10.1,0.2,10.8,0.2c0.7,0.1,5.5,0.7,5.5,0.7l0.7,0.2c0,0,7.9-0.6,9.9-0.7c0,0.7,0,1.4,0,2.2l-0.2,20.2h14.2
		c-0.4-0.1-0.8-0.1-1.2-0.1l1.6,0.1h-0.4c6.3,0.9,11.7-1.9,13.6-2.9c14.6-9.6,24.5-24.9,27.8-43c-0.3,49.2-0.6,107.4-0.6,107.4
		S659,433.1,667.2,433.1z M639.8,190.9c0,0-0.3,56.7-0.6,103.7c-0.8-4.9-2.1-9.5-3.7-13.7c-4.5-11.5-12-21.7-19.4-31.2l-0.3-0.4
		l-5.5-5.2c-0.6-0.5-1.1-0.8-1.7-1.1c0,0,0.3,0,0.3,0c-12.5-12.2-30.4-20.4-40-24.2c0,0-9.8-3.8-12.7-4.9c-0.9-1.2-2.4-3.4-2.5-3.5
		c0,0-3.9-5.5-4-5.6c-5.2-6.3-11.6-12.4-20.2-19.3l-8.6-6.7l-0.9-0.5c-20.3-11.7-38.5-20.1-57.2-26.3c-4.5-1.5-9.8-2.8-15.4-4.1
		c7.1-10.2,52.4-74.7,56.4-80.4c7.1,0,152.2,0,165.7,0c0,12.7,0,110.9,0,123.6C661,190.9,639.8,190.9,639.8,190.9z"/>
	<path d="M372.1,150.7l-82.5-112H286H78.6v183.5c0,0,18.7,0,26.3,0c0,12.7,0,166.2,0,179c-7.8,0-27.4,0-27.4,0v182.4h232.8l0.1-116
		c4.3-1.8,8.9-5,12.7-6.8c2.7-1.4,5.3-2.8,7.9-4.2c0.1,0,0.2-0.1,0.4-0.2l52.4,75.4c0,0,43.7-59.7,77.7-106c0,24.7,0,157,0,157
		h236.2l-1.3-178.9c0,0-20.5,0-28.5,0c0.1-12.8,1-171,1.1-183.7c8.2,0,29.8,0,29.8,0V38h-7.1H488.5l-82.1,116.9
		C406.4,154.9,384.7,150.7,372.1,150.7z M296,569.3c-12.9,0-191.3,0-204.2,0c0-12.5,0-141.4,0-153.9c7.8,0,27.4,0,27.4,0V207.9
		c0,0-18.7,0-26.3,0c0-12.5,0-142.5,0-155c13,0,182.8,0,189.5,0c3.4,4.6,54.5,74.1,71.5,97.2c-1.7,0-2.8-0.1-2.8-0.1
		c-3.2,0.2-6.5,0.3-9.7,0.5c-4,0.1-14.2-0.9-17.2,0.6c-2.8,0-10.9-0.5-12.9,0.5c-5,0-10,0.3-14.6,0.8c-1.1,0.1-2.1,0.2-3.2,0.3
		c-3.2,0.2-6.4,0.3-9.7,0.5c-3.6,0.1-9.4-0.8-12.4,0.6c-20.7,0-42-0.3-62.4-1.6c0,0.1,0,0.2,0,0.3c-0.1,0-0.1,0-0.1,0
		c-0.7,0-1.3,0.1-1.9,0.2c0-0.2-0.1-0.3-0.1-0.4c-9.8,0-20.1-3.3-30.1-2.7c0,12.5,8.6,22.8,18,29.9c3.1,2.3,7,3.4,8.9,6.7
		c-3.3,0-14.2,15.2-16.7,17.8c0,3.7,6.2,2.3,8.5,3c1.5,0.8,3,1.6,4.5,2.3c0,1-0.8,1.8-1.4,2.4c-5.3,4.8-11.6,9.3-16.3,14.9
		c-4.7,5.4-9.1,11.9-14.8,16.3c-2.5,2-5,3.9-7.5,5.9c-4.1,2.3-8.1,4.5-12.1,6.8c0,1.8,1.7,3.7,2.6,4.9c2.1,2.8,4.1,5.6,7.1,7.4
		c3.3,1.9,10.4,4.1,12.3,7.1c0.7,0,0.5-0.2,0.5,0.5c-3.9,0-11.8,22.7-9.7,26.9c0,0.9,0.6,0.5,1,0.4c4-0.6,7.8-2.8,11.9-0.9
		c0,0.4,0,0.7,0,1.1c-0.6,0-3.6,4.3-4.2,4.9c-6.4,8.1-9,18.9-16.8,26.2c-2.6,2.1-5.1,4.1-7.7,6.2c-2.8,1.5-5.9,2.1-8.4,4.1
		c0,5.6,15.6,11.6,15.6,14c0,2-2.6,4.3-3.4,6c-3.7,7.7-6.2,16.1-11.6,23c-1.2,1.3-2.3,2.7-3.5,4c-1.8,1.8-6.3,3.6-6,6.6
		c0.1,1.8,1.9,3,3.1,3.7c5.6,3.2,14.3,3.3,20.8,2c1.7-0.5,3.3-0.9,4.9-1.3c0,0.4,0,0.7,0,1.1c-1.2,0-3.5,1.9-4.4,2.7
		c-6,5.6,9.7,12.7,13.1,13.6c2.6,0.7,6.6,0.9,9.6,0.8c6.2-0.3,11.4-3.7,17.2-3.9c4.2-0.2,8.4,1.4,12.4,1.7
		c6.4,0.6,14.3-0.1,19.8-1.8c4.6-1.5,9.6-3.1,13.5-5.6c7.3-4.6,13.1-10.4,22.6-10.7c0,3.4-10,16.1-12,19.6
		c-2.7,4.6-3.9,9.8-8.1,13.5c-3.3,2.9-7.4,2.9-11.1,5.1c-0.3,0-0.7,0-1,0c0,3.2,3.6,5.7,5.8,7.2c11,7.4,38.2,6.4,50.8,2.7
		c5.8-1.7,11.2-4.6,17.2-5.6c0,5.4-9.5,19.6-12.9,23.7c-2,2.4-4.7,4.8-5.9,7.5c-0.9,0-0.6,0.9-0.6,1.6c2.6,0,9.9-1.9,13.7-2.6
		C296,488.3,296,558.2,296,569.3z M321.2,453.8c-6.5,3.9-13.2,9.9-20.7,11.7c0,0.2-0.9,0.2-0.9,0.4c-0.5,0-1.1,0-1.6,0
		c0-0.2,0-0.4,0-0.5c3.1-4.9,6.2-9.8,9.4-14.6c4.2-7.9,5.8-17.2,11.3-24.5c1.7-1.9,3.3-3.9,4.9-5.8c2.6-2.6,7-4.8,8.3-8.4
		c-0.2,0-0.4,0-0.6,0c0-0.2,0-0.4,0-0.5c-0.6,0.2-1.1,0.2-1.7,0.4c-10.4,3.6-17.3,13.8-26.7,19.2c-7.4,4.2-14.9,7.5-23.2,9.9
		c-3.2,0.8-6.4,1.5-9.6,2.2c-1.1,0.2-2.2,0.4-3.3,0.6c-4.5,0-19.8,0.2-21.7-3.2c-0.4-0.7-0.2-2.3,0.2-3c1.8-2.6,3.6-5.2,5.3-7.8
		c5.1-9.5,9.3-19.4,17.1-27.6c3.1-3.4,10.3-8,12-11.6c-0.2,0-0.3,0-0.5,0c0-1-5.2-0.4-5.9,0c-1.2,0.2-2.5,0.3-3.8,0.5
		c-2.3,0-5.7,0.1-7.6,1.1c-2.9,0-6.8,0.8-9.1,2.1c-9,0-16.1,7.4-23.9,10.4c-3.9,1.1-7.8,2.2-11.8,3.2c-2.5,0.3-4.9,0.6-7.4,0.9
		c-3.8-0.3-7.6-0.6-11.3-1c-4.5-0.1-10.5,1.6-14,3.7c-1.1,0.2-2.1,0.3-3.2,0.5c-1.2,0.2-2.5,0.4-3.8,0.5c-3.6,0-16.3-0.2-16.1-4.8
		c0.1-2.9,7.9-7.9,10.1-10.4c4.2-4.9,7.7-9.5,8.2-16.6c-0.2,0-0.3,0-0.5,0c0-0.2,0-0.3,0-0.5c-0.4,0-0.7,0-1.1,0
		c0,0.9-1.5,1.6-2.1,2.3c-5,5.3-12.2,8.9-19,10.9c-3.4,1-6.8,2-10.1,3c-1.1,0.2-2.2,0.3-3.3,0.6c-1.8,0-4-0.3-5.4-1.1
		c-0.2,0-0.3,0-0.5,0c0-1.2,7.8-9.5,8.8-11c5.1-7.3,8.3-15.4,13-22.7c2.1-2.7,4.1-5.5,6.2-8.2c1.8-2.5,3.6-3.2,4.3-6.5
		c-2.9,0-7.1,1.2-9.2,2.7c-2.9,0-12-0.4-12-4.3c0.4-0.6,0.7-1.2,1-1.9c1.3-0.9,2.7-1.9,4-2.9c3.1-2.4,6.4-4.4,9.3-7.4
		c0.2-0.1,0.3-0.4,0.5-0.5c0.2-0.3,0.5-0.6,0.7-0.8c0.3-0.3,0.5-0.6,0.7-0.9c0.2-0.2,0.3-0.5,0.4-0.6c4.2-6.8,7.9-14.2,12.6-20.9
		c2.6-3.8,6.4-7.4,9.8-10.5c1.2-0.8,2.4-1.7,3.6-2.6c0-0.2,0.1-0.3,0.2-0.5c0-0.3-0.1-0.5-0.1-0.8c-2.1-4.8-15.1-3.6-20-3.4
		c0-0.2,0-0.4,0-0.5c-0.2,0-0.4,0-0.5,0c0-8.2,14.1-20.4,19.9-25.8c0-0.2,0-0.3,0-0.5c-0.2,0-0.4,0-0.6,0c0-0.2,0-0.3,0-0.5
		c-0.5,0.2-1.1,0.4-1.6,0.5c-1.3,0.2-2.5,0.4-3.8,0.5c-11.4,0-16.4-2.3-25.3-7.6c0-1.1,1.1-2.2,1.8-2.9c2.7-3,7-5.2,10.3-7.6
		c3.2-2.8,6.5-5.7,9.7-8.5c7.4-6.5,12.5-15.3,20.6-20.7c3.5-2.4,7.5-4.5,11.4-6.2c6-2.5,15.9-3.9,18.1-11.1c-0.5,0-1.1,0-1.6,0
		c0,1.8-8.7,3.3-10.2,4.3c-4.5,0-19.6-0.4-19.8-6c0-3.6,9.3-9.6,11.9-10.8c3.4-1.2,6.6-2.4,10-3.7c0-0.6-0.3-0.9-0.8-1.1
		c-2.8-1-5.7-2-8.4-3c-9.4-4.1-21.9-10.4-24.7-21.7c0.2,0,0.3,0,0.5,0c0-0.8,0.4-0.5,1.1-0.5c5.9,0,12.1,1.4,17.8,0.5
		c0,0,0-0.1,0-0.1c0.4,0.1,0.8,0.1,1.3,0.1c0.5,0.4,1.2,0.6,2,0.8c7.2,0.1,14.3,0.3,21.5,0.4c5.9,0.3,11.8,0.5,17.7,0.8
		c12.1-0.4,24.5-0.7,36.6-0.9c4.7-0.1,9.4-0.3,14.1-0.5c2.5-0.3,4.9-0.6,7.4-0.9c9.2,0,18.4,0.4,27.9,0.3c8.2-0.2,16.8-0.4,24.8,0.2
		c3.9,0,7.9-0.1,11.8-0.1c4.3,0.5,8.7,1.1,13,1.6c22.5,2,43.6,6.2,64.1,12c6.3,1.8,12.6,3.2,18.6,5.4c6.5,2.4,12.4,5.7,18.5,8.8
		c13.8,7.1,27.7,14.7,38.6,27c0.8,0.9,3.6,3.6,2.7,5c-0.7,1.1-4-0.4-4.8-0.7c-6-1.8-14.2-6.3-20.9-6.1c-3.1,0.1-9.5,2.8-11.9,4.3
		c-8.4,0-12.8-3.9-19-7.8c-4.1-2.5-8.2-5.1-12.3-7.6c-5.5-2.5-14.1-4.3-20.9-3.7c-2.5,0.3-5,0.5-7.5,0.9c-3.1,0-7.6-0.5-10.2,0.5
		c-2.3,0-5.7-0.2-7.5,0.5c-9.3,0-15.7-2.2-23.2-5.3c-0.5-0.2-3.5-1.1-3.7-0.1c0,5.4,15.8,15.1,19.4,17.8c-4.5,0-10,0.3-12.9,3.2
		c-1.1,0,0.4,1.2,0.7,1.4c2.4,1.7,7,0.9,9.9,1.7c5.1,1.4,10.6,4.8,14.5,8.4c3.8,3.4,7.2,7.4,10.1,11.4c3.2,4.4,5.8,9.5,9.6,13.6
		c4.6,5.1,10.6,8.3,16.4,10.9c0,0.2,0,0.4,0,0.5c-4,0-13.2-1.6-16.7,0c-5.3,0-12.5,2.6-13.6,8.1c-0.4,1.8,0.4,4.3,0.7,5.9
		c-0.1,0-0.4,0-0.5,0c0,1.9-8.2-1.2-8.8-1.5c-0.4-0.1-0.8-0.3-1.1-0.5c-0.4-0.2-0.7-0.4-1.1-0.5c-0.3-0.2-0.7-0.3-1.1-0.5
		c-0.3-0.1-0.6-0.2-0.9-0.4c-0.4-0.1-0.8-0.3-1.1-0.5c-0.2-0.1-0.5-0.2-0.7-0.2c-0.3-0.1-0.6-0.2-0.9-0.3c-0.4-0.1-0.8-0.3-1.1-0.4
		c-0.8-0.2-21.1-6.5-21.3-2c-0.1,1.8,6.9,7.9,7.9,10c0.8,0,0.5,0.5,0.5,1.1c-0.1,0-0.3,0-0.5,0c0,0.9-5.5,0.6-6.5,1.1
		c-1.3,0.2-2.5,0.3-3.8,0.5c-1.2,0.2-2.5,0.4-3.8,0.5c-4.6,0-18.3,4.1-21,7c-0.7,0-0.5-0.2-0.5,0.5c1.1,0.3,2.2,0.6,3.3,0.9
		c8.1,1.1,29.7,3,33.3,9.3c1.3,0-0.8,1.5-1.1,1.7c-5.6,4-11.9,6.4-18.4,8.8c-2.8,1-6.9,1.3-9,3.5c-1.2,0,1.1,2,1.5,2.3
		c9.9,8.2,19.2,5.3,31.9,5.7c0,0.2,0,0.3,0,0.5c0.9,0,0.4,0.6,0.3,1c-1.2,5-6.6,7.3-8.4,11.9c-0.9,0-0.2,1.2,0,1.6
		c1.6,0.3,3.2,0.5,4.8,0.8c3.8-0.4,7.6-0.7,11.4-1.1c0.9,0.1,1.6,0.8,2.1,1.4c0.7,0,0.6-0.2,0.6,0.5c-0.7,0-0.8,0.5-1.1,1.1
		c-1.3,1.9-3.1,4.8-5.1,6c-2,1.2-4.2,1.8-6,3.4c-0.2,0.4-0.5,0.6-0.7,0.9c-1.2,0,0.9,1.6,1.2,1.8c1.5,0.7,8.3,1.7,7.6,4
		c-1.2,3.9-5.2,7.2-7.5,10.5c-2.6,3.7-4.8,8.2-6.5,12.3c-2.1,5-4,10.1-5.3,15.5c-0.8,3.5-0.4,10-2.1,12.7
		c-3.3,5.4-11.5,9.8-16.4,13.7C353.5,433.9,337.2,444.1,321.2,453.8z M518.5,292.6c0,0.2,0,0.4,0,0.6c-6.1-3-12.2-6.1-18.4-9.1
		c-8.2-3.1-16.9-6.6-25.8-8.6c-6.8-1-13.6-2.1-20.4-3.1c-5.8-1.1-12.9-3.4-18.3-0.2c0,2.1,2.7,3.4,3.8,4.8c0.5,0,0.2,0.3,0,0.5
		c0,0.2,0,0.3,0,0.5c-2.9,0-6.1-0.4-8.3-1.6c-3-1.6-3.2-6,0-7.6c3.6-1.9,8.8-1.7,13.2-1.6c15.2,0.2,28.6,3.2,42.5,5.2
		c8.5,1.3,17.4,1.5,26.3,1.9c4.9,0.2,10.7,0.7,15.6,0.2c3.9-0.9,7.9-1.9,11.9-2.8c6.6-1.6,14-3.4,18.5-9
		c9.8-12.3-14.1-18.2-19.1-6.2c1.1,0,2.1,1.9,3.3,2.3c3,0.9,6.8,0.8,10.2,0.9c0,0.2,0,0.3,0,0.5c0.2,0,0.3,0,0.5,0
		c0,0.4,0,0.8,0,1.1c-0.5,0-5.4,3.5-6.6,4c-3.2,1-6.4,2-9.5,3c-2.4,0-6.2,0.6-8.1,1.6c-2.3,0.3-4.6,0.5-7,0.7
		c-3.6-0.4-7.1-0.9-10.8-1.3c-4.5-0.3-9-0.5-13.4-0.9c-6.6-0.6-16.7,0.1-22-2.8c-0.2,0-0.3,0-0.5,0c0-6.6,17.7-11.1,22.7-12.1
		c2.9-0.6,6.4,0.1,8.6-1.9c2.5-2.5-2.4-9.7-3.3-12.3c-0.1-1.3-0.4-2.5-0.5-3.8c2.6-0.8,5.1-1.6,7.6-2.4c4.1-0.6,8.2-1.3,12.3-1.9
		c13.3,0.4,24.2,3.8,35.2,8.2c31,12.6,58.7,37.9,56.9,75.2c-0.5,9.4-2.2,21.8-8.7,28c0,0.2,0,0.4,0,0.5c-0.4,0-0.7,0-1.1,0
		c0-9.3-2-20.2-8-26.6c-11.6-12.4-39.2-14.4-56-18.8c-3.8-1.2-7.6-2.4-11.4-3.6c-1.7-0.7-12.6-7.2-13.8-7c-0.1,0.1-0.2,0.1-0.3,0.1
		C515.3,287.8,518.2,292.4,518.5,292.6z M426.7,216c-5.6,0-10.3-1.6-15.3-2.4c0-0.3,0-0.7,0-1c7.6,0,13.9-2.1,20.5-3.6
		c2.8-0.7,6.1-1.2,8.6-2.3c1,0.3,2.1,0.7,3.2,1.1c0,0.7,0.2,0.5-0.5,0.5c0,1-5.4,3.2-6.5,3.8C436.7,212,427.4,215.8,426.7,216z
		 M442.6,221.6c1.8,1.8,2.4,3.7,3.6,5.7c2.1,3.6,5.6,5.8,9.3,7.1c2.8,1,6.9,0.8,9.6,0c1.3-0.4,2.6-0.8,3.9-1.2
		c3.1,0,8.5,6.7,10.2,8.9c0,0-2.9,1-3.7,1.1c-8.3,0.9-14.5-0.4-19.5-2.7C447.2,236.4,438.7,231.2,442.6,221.6z M456.1,225.9
		c0.2,0.2,0.8,1.6,0.5,1.8c-6.9,2.5-12.2-10-4.3-14.6c0-0.2,0.4-0.4,0.4-0.5c0.5,0,1.5-0.4,2.1-0.4c-0.3,1.4-1.4,3.2-1.7,4.6
		C452.7,222.1,453.9,221.5,456.1,225.9z M475.4,245.3c0.2,0.2,0.3,0.4,0.5,0.5c0.5,0,0.2,0.3,0,0.5c0-0.2,0-0.3,0-0.5
		C475.2,245.9,475.4,246.1,475.4,245.3z M469.5,248.5c-1,0-2-0.5-2.7-1.1C467.7,247.8,468.6,248.2,469.5,248.5z M684.4,205.9
		c-8.2,0-29.7,0-29.7,0l-1.2,212.2c0,0,20.7,0,28.7,0c0.1,12.4,1,137.8,1.1,150.4c-13,0-194.6,0-207.5,0c0-12.5,0-138.6,0-150.7
		c8.3-0.3,30.6-1,30.6-1l1.9-78.9c0,0-113.4,154.8-124.1,169.3c-8.1-11.7-36.4-52.4-40.7-58.5c1.3-0.9,2.2-1.4,2.2-1.4
		c3-3.7,8.5-5.9,12.4-8.6c7-4.9,13.9-9.9,20.8-15.1c4.4-3.5,8.8-7.1,13.1-10.6c9.1-9.1,18.5-17.5,27.4-26.9
		c5.8-6.2,11.2-13.2,17.2-19.4c6.9-7.1,15.5-13.4,23.6-18.5c6.5-4.1,12.7-8.4,19.8-11.2c9.8-3.9,20.7-5.4,31.7-7
		c3.6-0.6,7.7,0.2,11.2,0.2c12.4,0.2,23.6,2.5,35,3.6c3.6,0.1,7.2,0.1,10.8,0.2c2.2,0.2,4.3,0.5,6.5,0.8c5.5,0.3,15.4-2.4,19.7-0.8
		c0.4,0.2,0.8,0.4,1.2,0.7c3.5,2.9,2.8,17,2.8,21.9c0.2,0,0.3,0,0.6,0c0,1.3,3.3-0.2,3.8-0.5c11.7-7.7,18.9-19.7,21.3-33.4
		c2.1-11.9,1.3-25.9-2.8-36.4c-3.8-9.8-10.7-19-17.2-27.4c-1.6-2-4-3.6-5.9-5.4c-9.2-9-23-16.2-34.9-20.9c-5.2-2-10.5-4-15.7-6
		c-3.4-2.1-6.8-9-9.6-12.4c-5.3-6.4-11.6-12-17.9-17.1c-2.6-2-5.2-4.1-7.8-6.1C495,181,477.4,172.5,458,166
		c-10.5-3.5-28.5-6.7-33.4-8c0,0-1-0.2-2.6-0.5c9.9-14.1,70.2-100,73.9-105.3c6.9,0,175.5,0,188.5,0
		C684.4,64.8,684.4,193.4,684.4,205.9z M477.8,403.4c5.5-7.5,11.9-16.2,15-20.4c-0.2,9.9-0.4,15.3-0.5,20
		C487.3,403.1,484,403.2,477.8,403.4z"/>
	<g>
		<path class="st1" d="M676.9,198.4c0-12.9,0-125.7,0-138.6c-13.6,0-169.9,0-177.1,0c-3.6,5.2-55.1,78.6-65.1,92.8
			c7.9,1.7,18.3,3.9,25.7,6.3c18.2,6.1,35.9,14.2,55.8,25.7l0.5,0.3l8.2,6.4c8.2,6.5,14.2,12.3,19.1,18.2c0,0,3.6,5.1,3.6,5.1
			c1.1,1.6,2.9,4.5,4,5.5c1.8,0.7,14.6,5.6,14.6,5.6c9.1,3.6,25.9,11.3,37.4,22.6c-0.1-0.1,1.7,1.5,1.7,1.5l4.8,4.6
			c7,9.1,14.2,18.7,18.3,29.3c4.5,11.4,5.7,26.6,3.2,40.4c-2.9,16.3-11.6,29.9-24.6,38.4c-2.8,3.1-10.5,7.6-12.5,8.2
			c-2,0.7-2.7-1.3-2.7-1.3l-0.7-14.9c0-1,0-2,0-2.9c0-4.9-0.2-8.3-0.6-10.4c-1.9,0-4.6,0.4-6.5,0.6l-10.2,0.7v-0.1
			c0,0-5.4-0.6-5.9-0.7c-0.5,0-10.8-0.3-10.8-0.3l-0.1,0l-12.4-1.5c-7.1-1-14.4-2-22-2.1c0,0-4.1-0.2-4.1-0.2
			c-1-0.1-1.9-0.1-2.8-0.2c0,0-2.1,86.7-2.1,86.7s-21.9,0.7-30.4,1c0,12.5,0,123.1,0,135.9c13.4,0,178.9,0,192.4,0
			c-0.1-13-0.9-124.8-1-135.4c-8.2,0-28.8,0-28.8,0l1.3-227.2C647.2,198.4,668.5,198.4,676.9,198.4z"/>
		<path class="st1" d="M482.6,344.1c-5.2,2-10.1,5.1-15.2,8.4l-3.3,2.1c-8.9,5.5-16.6,11.5-22.2,17.3c0,0-9.1,10.3-9.1,10.3
			l-7.9,9.1c0,0-16.6,16.5-16.6,16.5L397,418.6l-0.3,0.3l-13.4,10.8l-21.1,15.3c0,0-4.6,2.8-4.6,2.8c-1.4,0.8-2.8,1.7-4,2.5
			c5.5,7.9,22.9,33,30.6,44C395,479.6,488.8,351.6,497.2,340C492.1,341.1,487.2,342.3,482.6,344.1z"/>
		<path class="st2" d="M153.2,302.4c0,0.6,0.1,1.1,0.2,1.6c0.2,0.6,0.3,1.2,0.6,1.7L153.2,302.4z"/>
		<path class="st1" d="M280.8,483.5c-1.5,0.4-9.3,4.7-12,2c-2.7-2.7,8-16.4,8-16.4s0.3-0.2,0.4-0.2c1.3-2.1,2.8-3.9,4.2-5.5l1.6-1.8
			c1.3-1.6,3-4,4.6-6.4c-0.2,0.1-0.9,0.3-0.9,0.3c-13,3.8-43.2,5.8-57.1-3.6c-2.7-1.8-10.8-4.5-10.8-11.8l-0.7-8c0,0,9-1.2,9.6-1.2
			c1.8-0.7,3.7-1.6,3.7-1.6c1.9-0.6,3-1,3.8-1.7c1.7-1.5,2.7-3.7,4-6.4c0,0,1.1-2.1,1.8-3.6c-4.6,2.7-9.7,4.5-14.6,6.1
			c-6.3,2-15.3,2.8-22.8,2.1c0,0-5.6-1-5.6-1c-2.1-0.4-4.1-0.9-5.6-0.8c-2,0.1-4.1,0.8-6.6,1.6c-3.1,1-6.6,2.2-10.7,2.3
			c-1.7,0.1-7.4,0.2-11.9-1c-0.1,0-16.5-5-19.4-15c-5.8,0-11.9-0.9-16.8-3.8c-0.1,0-0.1-0.1-0.2-0.1c0,0.5,0,7.3,0,7.3v7.5
			c0,0-19.5,0-27.4,0c0,12.9,0,125.9,0,138.8c13.4,0,175.8,0,189.2,0c0-11.4,0-65.7,0-79.6c-2.5,0.5-4.7,0.8-6.2,0.8L280.8,483.5z"
			/>
		<path class="st1" d="M100.4,60.5c0,12.9,0,127.1,0,140c7.7,0,26.3,0,26.3,0s0,144.5,0,186.7c0.2-0.1,0.4-0.3,0.5-0.4
			c0,0,0.9-0.6,1-0.7c0.4-0.5,3.2-3.6,3.2-3.6c3-3.8,5.1-8.9,7.4-14.2l3.1-7c0,0,0.3-0.4,0.6-0.9c-6.1-3.8-13.5-8.5-13.5-15.9v-4.5
			l2.9-1.4l6.8-3.6c0,0,1.6-0.7,2.2-0.9c1-0.8,6.2-5,6.6-5.3c3.6-3.4,6-8,8.5-12.9c0.9-1.8,1.9-3.7,3-5.6c-1.1-0.3-2.1-0.7-2.7-1.2
			c-1.6-1.2-2.6-2.9-3-4.9c-0.3-1.1-0.4-2.4-0.4-3.7c0-7.5,3.9-17.7,6.7-23.1c-0.3-0.2-0.8-0.4-1-0.5l-4.9-2.4c-4.2-2.5-6.8-6-9.1-9
			l-0.6-0.9c-1.4-1.8-3.6-4.8-3.6-8.8v-4.4c0,0,14.6-8.2,15.5-8.7c0.8-0.6,7-5.5,7-5.5c3.6-2.8,6.8-6.8,9.9-10.6l3.9-4.7
			c2.8-3.3,5.9-6.1,9-8.8c-5.2-2.1-6.1-6.2-6.1-9v-2.7l2.2-2.6l3.2-3.9c2.7-3.4,4.9-6,6.9-8.2c-0.7-0.5-1.6-1-1.6-1
			c-13.5-10.2-21-22.9-21-35.9v-7.1l7-0.5c6.3-0.4,12.4,0.5,18.2,1.4c4.4,0.7,8.6,1.3,12.4,1.3h5.8c0,0,0,0.2,0,0.2
			c16.3,1,34.9,1.4,58,1.5c3.2-0.8,6.7-0.8,9.9-0.7c0,0,3,0.1,3,0.1c0,0,9.4-0.5,9.4-0.5l3.1-0.3c4.1-0.5,9.2-0.8,14.4-0.8
			c2.6-0.6,6-0.7,11.5-0.6c0,0,0.9,0,1.5,0c3.4-0.8,7.7-0.9,13.6-0.6c0,0,1.1,0,2.1,0.1c-12.8-17.3-57.1-77.6-60.8-82.6
			C271.6,60.5,113.9,60.5,100.4,60.5z"/>
	</g>
</g>
</svg>
